<mxfile host="65bd71144e">
    <diagram id="gwNGmIrvXMTOF_ABRq2E" name="Страница 1">
        <mxGraphModel dx="471" dy="525" grid="1" gridSize="10" guides="1" tooltips="1" connect="1" arrows="1" fold="1" page="1" pageScale="1" pageWidth="827" pageHeight="1169" math="0" shadow="0">
            <root>
                <mxCell id="0"/>
                <mxCell id="1" parent="0"/>
                <mxCell id="7" value="" style="edgeStyle=none;html=1;" parent="1" source="2" target="6" edge="1">
                    <mxGeometry relative="1" as="geometry"/>
                </mxCell>
                <mxCell id="2" value="Start" style="ellipse;whiteSpace=wrap;html=1;" parent="1" vertex="1">
                    <mxGeometry x="354" y="60" width="120" height="80" as="geometry"/>
                </mxCell>
                <mxCell id="9" value="" style="edgeStyle=none;html=1;" parent="1" source="6" edge="1">
                    <mxGeometry relative="1" as="geometry">
                        <mxPoint x="413.72175066313" y="290.1273209549072" as="targetPoint"/>
                    </mxGeometry>
                </mxCell>
                <mxCell id="6" value="&lt;span lang=&quot;EN-US&quot; style=&quot;line-height: 107% ; font-family: &amp;#34;calibri&amp;#34; , sans-serif&quot;&gt;&lt;font style=&quot;font-size: 14px&quot;&gt;string[] array&lt;br&gt;&lt;span lang=&quot;EN-US&quot; style=&quot;line-height: 107% ; font-family: &amp;#34;calibri&amp;#34; , sans-serif&quot;&gt;string[] newArray&lt;br&gt;&lt;/span&gt;int size = 0;&lt;/font&gt;&lt;br&gt;&lt;/span&gt;" style="whiteSpace=wrap;html=1;" parent="1" vertex="1">
                    <mxGeometry x="357" y="180" width="114" height="60" as="geometry"/>
                </mxCell>
                <mxCell id="14" value="" style="edgeStyle=none;html=1;fontSize=14;" parent="1" source="11" target="13" edge="1">
                    <mxGeometry relative="1" as="geometry"/>
                </mxCell>
                <mxCell id="29" value="Yes" style="edgeLabel;html=1;align=center;verticalAlign=middle;resizable=0;points=[];fontSize=14;" parent="14" vertex="1" connectable="0">
                    <mxGeometry x="-0.3889" relative="1" as="geometry">
                        <mxPoint y="10" as="offset"/>
                    </mxGeometry>
                </mxCell>
                <mxCell id="28" value="" style="edgeStyle=none;html=1;fontSize=14;" parent="1" source="11" target="27" edge="1">
                    <mxGeometry relative="1" as="geometry"/>
                </mxCell>
                <mxCell id="30" value="No" style="edgeLabel;html=1;align=center;verticalAlign=middle;resizable=0;points=[];fontSize=14;" parent="28" vertex="1" connectable="0">
                    <mxGeometry x="-0.5122" relative="1" as="geometry">
                        <mxPoint x="16" as="offset"/>
                    </mxGeometry>
                </mxCell>
                <mxCell id="11" value="&lt;p class=&quot;MsoNormal&quot;&gt;&lt;span lang=&quot;EN-US&quot; style=&quot;line-height: 107%&quot;&gt;&lt;font style=&quot;font-size: 14px&quot;&gt;for (int i = 0;&amp;nbsp;&lt;/font&gt;&lt;/span&gt;&lt;span style=&quot;font-size: 14px&quot;&gt;i &amp;lt; array.Length; i++)&lt;/span&gt;&lt;/p&gt;&lt;p class=&quot;MsoNormal&quot;&gt;&lt;span lang=&quot;EN-US&quot; style=&quot;font-size: 12.0pt ; line-height: 107%&quot;&gt;&lt;/span&gt;&lt;/p&gt;" style="rhombus;whiteSpace=wrap;html=1;" parent="1" vertex="1">
                    <mxGeometry x="329" y="290" width="169" height="110" as="geometry"/>
                </mxCell>
                <mxCell id="16" value="" style="edgeStyle=none;html=1;fontSize=14;" parent="1" source="13" target="15" edge="1">
                    <mxGeometry relative="1" as="geometry"/>
                </mxCell>
                <mxCell id="24" value="Yes" style="edgeLabel;html=1;align=center;verticalAlign=middle;resizable=0;points=[];fontSize=14;" parent="16" vertex="1" connectable="0">
                    <mxGeometry x="-0.5" y="1" relative="1" as="geometry">
                        <mxPoint x="-10" y="-1" as="offset"/>
                    </mxGeometry>
                </mxCell>
                <mxCell id="20" style="edgeStyle=none;html=1;exitX=1;exitY=0.5;exitDx=0;exitDy=0;fontSize=14;" parent="1" source="13" edge="1">
                    <mxGeometry relative="1" as="geometry">
                        <mxPoint x="190" y="350" as="targetPoint"/>
                        <Array as="points">
                            <mxPoint x="521" y="620"/>
                            <mxPoint x="100" y="620"/>
                            <mxPoint x="100" y="350"/>
                        </Array>
                    </mxGeometry>
                </mxCell>
                <mxCell id="26" value="No" style="edgeLabel;html=1;align=center;verticalAlign=middle;resizable=0;points=[];fontSize=14;" parent="20" vertex="1" connectable="0">
                    <mxGeometry x="-0.933" relative="1" as="geometry">
                        <mxPoint y="8" as="offset"/>
                    </mxGeometry>
                </mxCell>
                <mxCell id="13" value="&lt;span lang=&quot;EN-US&quot; style=&quot;font-size: 12.0pt ; line-height: 107% ; font-family: &amp;#34;calibri&amp;#34; , sans-serif&quot;&gt;if(array[i].Length &amp;lt;= 3)&lt;/span&gt;" style="rhombus;whiteSpace=wrap;html=1;" parent="1" vertex="1">
                    <mxGeometry x="307" y="495" width="213.5" height="80" as="geometry"/>
                </mxCell>
                <mxCell id="18" style="edgeStyle=none;html=1;exitX=0.5;exitY=0;exitDx=0;exitDy=0;entryX=0;entryY=0.5;entryDx=0;entryDy=0;fontSize=14;" parent="1" source="15" target="11" edge="1">
                    <mxGeometry relative="1" as="geometry">
                        <Array as="points">
                            <mxPoint x="190" y="345"/>
                        </Array>
                    </mxGeometry>
                </mxCell>
                <mxCell id="15" value="&lt;span lang=&quot;EN-US&quot; style=&quot;font-size: 12.0pt ; line-height: 107% ; font-family: &amp;#34;calibri&amp;#34; , sans-serif&quot;&gt;newArray[size]&lt;br&gt;= array[i];&lt;br&gt;&lt;span lang=&quot;EN-US&quot; style=&quot;font-size: 12pt ; line-height: 107%&quot;&gt;size++;&lt;/span&gt;&lt;br&gt;&lt;/span&gt;" style="whiteSpace=wrap;html=1;" parent="1" vertex="1">
                    <mxGeometry x="125" y="502.5" width="130" height="65" as="geometry"/>
                </mxCell>
                <mxCell id="32" value="" style="edgeStyle=none;html=1;fontSize=14;" parent="1" source="27" target="31" edge="1">
                    <mxGeometry relative="1" as="geometry"/>
                </mxCell>
                <mxCell id="27" value="&lt;span lang=&quot;EN-US&quot; style=&quot;font-size: 12.0pt ; line-height: 107% ; font-family: &amp;#34;calibri&amp;#34; , sans-serif&quot;&gt;void WriteArray(string[] array)&lt;/span&gt;" style="whiteSpace=wrap;html=1;" parent="1" vertex="1">
                    <mxGeometry x="580" y="315" width="212.5" height="60" as="geometry"/>
                </mxCell>
                <mxCell id="36" value="" style="edgeStyle=none;html=1;fontSize=14;entryX=0.5;entryY=0;entryDx=0;entryDy=0;" parent="1" edge="1">
                    <mxGeometry relative="1" as="geometry">
                        <mxPoint x="911.873" y="375" as="sourcePoint"/>
                        <mxPoint x="911.8699999999999" y="420" as="targetPoint"/>
                    </mxGeometry>
                </mxCell>
                <mxCell id="31" value="&lt;span lang=&quot;EN-US&quot; style=&quot;font-size: 12.0pt ; line-height: 107% ; font-family: &amp;#34;calibri&amp;#34; , sans-serif&quot;&gt;Console.Write(&quot;[ &quot;);&lt;/span&gt;" style="whiteSpace=wrap;html=1;" parent="1" vertex="1">
                    <mxGeometry x="840" y="315" width="143.75" height="60" as="geometry"/>
                </mxCell>
                <mxCell id="41" value="" style="edgeStyle=none;html=1;fontSize=14;" parent="1" source="37" target="40" edge="1">
                    <mxGeometry relative="1" as="geometry"/>
                </mxCell>
                <mxCell id="52" value="Yes" style="edgeLabel;html=1;align=center;verticalAlign=middle;resizable=0;points=[];fontSize=14;" parent="41" vertex="1" connectable="0">
                    <mxGeometry x="-0.4625" relative="1" as="geometry">
                        <mxPoint y="7" as="offset"/>
                    </mxGeometry>
                </mxCell>
                <mxCell id="56" style="edgeStyle=none;html=1;exitX=1;exitY=0.5;exitDx=0;exitDy=0;entryX=0;entryY=0.5;entryDx=0;entryDy=0;fontSize=14;" parent="1" source="37" target="55" edge="1">
                    <mxGeometry relative="1" as="geometry"/>
                </mxCell>
                <mxCell id="61" value="Text" style="edgeLabel;html=1;align=center;verticalAlign=middle;resizable=0;points=[];" vertex="1" connectable="0" parent="56">
                    <mxGeometry x="-0.4917" y="-2" relative="1" as="geometry">
                        <mxPoint as="offset"/>
                    </mxGeometry>
                </mxCell>
                <mxCell id="37" value="&lt;p class=&quot;MsoNormal&quot;&gt;&lt;span lang=&quot;EN-US&quot; style=&quot;line-height: 107%&quot;&gt;&lt;font style=&quot;font-size: 14px&quot;&gt;for (int i = 0;&amp;nbsp;&lt;/font&gt;&lt;/span&gt;&lt;span style=&quot;font-size: 14px&quot;&gt;i &amp;lt; array.Length; i++)&lt;/span&gt;&lt;/p&gt;&lt;p class=&quot;MsoNormal&quot;&gt;&lt;span lang=&quot;EN-US&quot; style=&quot;font-size: 12.0pt ; line-height: 107%&quot;&gt;&lt;/span&gt;&lt;/p&gt;" style="rhombus;whiteSpace=wrap;html=1;" parent="1" vertex="1">
                    <mxGeometry x="827.37" y="420" width="169" height="110" as="geometry"/>
                </mxCell>
                <mxCell id="45" style="edgeStyle=none;html=1;exitX=0.5;exitY=1;exitDx=0;exitDy=0;entryX=0.5;entryY=0;entryDx=0;entryDy=0;fontSize=14;" parent="1" source="40" target="44" edge="1">
                    <mxGeometry relative="1" as="geometry"/>
                </mxCell>
                <mxCell id="40" value="&lt;span lang=&quot;EN-US&quot; style=&quot;font-size: 12.0pt ; line-height: 107% ; font-family: &amp;#34;calibri&amp;#34; , sans-serif&quot;&gt;Console.Write(array[i]);&lt;/span&gt;" style="whiteSpace=wrap;html=1;" parent="1" vertex="1">
                    <mxGeometry x="828.25" y="575" width="168.12" height="45" as="geometry"/>
                </mxCell>
                <mxCell id="47" value="" style="edgeStyle=none;html=1;fontSize=14;" parent="1" source="44" target="46" edge="1">
                    <mxGeometry relative="1" as="geometry"/>
                </mxCell>
                <mxCell id="48" value="Yes" style="edgeLabel;html=1;align=center;verticalAlign=middle;resizable=0;points=[];fontSize=14;" parent="47" vertex="1" connectable="0">
                    <mxGeometry x="-0.3218" y="-1" relative="1" as="geometry">
                        <mxPoint x="-8" as="offset"/>
                    </mxGeometry>
                </mxCell>
                <mxCell id="50" style="edgeStyle=none;html=1;exitX=0.5;exitY=1;exitDx=0;exitDy=0;fontSize=14;" parent="1" source="44" edge="1">
                    <mxGeometry relative="1" as="geometry">
                        <mxPoint x="710" y="600" as="targetPoint"/>
                        <Array as="points">
                            <mxPoint x="912" y="800"/>
                            <mxPoint x="620" y="800"/>
                            <mxPoint x="620" y="600"/>
                        </Array>
                    </mxGeometry>
                </mxCell>
                <mxCell id="51" value="No" style="edgeLabel;html=1;align=center;verticalAlign=middle;resizable=0;points=[];fontSize=14;" parent="50" vertex="1" connectable="0">
                    <mxGeometry x="-0.9466" y="3" relative="1" as="geometry">
                        <mxPoint x="-4" y="7" as="offset"/>
                    </mxGeometry>
                </mxCell>
                <mxCell id="44" value="&lt;span lang=&quot;EN-US&quot; style=&quot;font-size: 12.0pt ; line-height: 107% ; font-family: &amp;#34;calibri&amp;#34; , sans-serif&quot;&gt;if(i &amp;lt; size - 1)&lt;/span&gt;" style="rhombus;whiteSpace=wrap;html=1;" parent="1" vertex="1">
                    <mxGeometry x="844.87" y="666" width="134.88" height="80" as="geometry"/>
                </mxCell>
                <mxCell id="49" style="edgeStyle=none;html=1;exitX=0.5;exitY=0;exitDx=0;exitDy=0;entryX=0;entryY=0.5;entryDx=0;entryDy=0;fontSize=14;" parent="1" source="46" target="37" edge="1">
                    <mxGeometry relative="1" as="geometry">
                        <Array as="points">
                            <mxPoint x="709" y="475"/>
                        </Array>
                    </mxGeometry>
                </mxCell>
                <mxCell id="46" value="&lt;span lang=&quot;EN-US&quot; style=&quot;font-size: 12.0pt ; line-height: 107% ; font-family: &amp;#34;calibri&amp;#34; , sans-serif&quot;&gt;Console.Write(&quot;, &quot;);&lt;/span&gt;" style="whiteSpace=wrap;html=1;" parent="1" vertex="1">
                    <mxGeometry x="640" y="684" width="137.43" height="44" as="geometry"/>
                </mxCell>
                <mxCell id="58" style="edgeStyle=none;html=1;exitX=0.5;exitY=1;exitDx=0;exitDy=0;entryX=0.5;entryY=0;entryDx=0;entryDy=0;fontSize=14;" parent="1" source="55" target="57" edge="1">
                    <mxGeometry relative="1" as="geometry"/>
                </mxCell>
                <mxCell id="55" value="&lt;span lang=&quot;EN-US&quot; style=&quot;font-size: 12.0pt ; line-height: 107% ; font-family: &amp;#34;calibri&amp;#34; , sans-serif&quot;&gt;Console.Write(&quot; ]&quot;);&lt;/span&gt;" style="whiteSpace=wrap;html=1;" parent="1" vertex="1">
                    <mxGeometry x="1050" y="445" width="143.75" height="60" as="geometry"/>
                </mxCell>
                <mxCell id="60" value="" style="edgeStyle=none;html=1;fontSize=14;" parent="1" source="57" target="59" edge="1">
                    <mxGeometry relative="1" as="geometry"/>
                </mxCell>
                <mxCell id="57" value="&lt;span lang=&quot;EN-US&quot; style=&quot;font-size: 12.0pt ; line-height: 107% ; font-family: &amp;#34;calibri&amp;#34; , sans-serif&quot;&gt;WriteArray(newArray);&lt;/span&gt;" style="shape=document;whiteSpace=wrap;html=1;boundedLbl=1;fontSize=14;" parent="1" vertex="1">
                    <mxGeometry x="1040.9399999999998" y="567.5" width="161.88" height="60" as="geometry"/>
                </mxCell>
                <mxCell id="59" value="End" style="ellipse;whiteSpace=wrap;html=1;fontSize=14;" parent="1" vertex="1">
                    <mxGeometry x="1061.8799999999999" y="676" width="120" height="60" as="geometry"/>
                </mxCell>
            </root>
        </mxGraphModel>
    </diagram>
</mxfile>